<mxfile host="app.diagrams.net" modified="2022-01-28T02:18:22.136Z" agent="5.0 (Windows NT 10.0; Win64; x64) AppleWebKit/537.36 (KHTML, like Gecko) Chrome/97.0.4692.99 Safari/537.36" etag="S4-zDRgx4qkKxDrIe-DJ" version="16.4.11" type="github">
  <diagram id="cB2xD58eg4lPSIvs-B4w" name="Page-1">
    <mxGraphModel dx="1403" dy="1113" grid="1" gridSize="10" guides="1" tooltips="1" connect="1" arrows="1" fold="1" page="1" pageScale="1" pageWidth="1169" pageHeight="827" math="0" shadow="0">
      <root>
        <mxCell id="0" />
        <mxCell id="1" parent="0" />
        <mxCell id="4gpTap-luiY6iofxUlM1-19" value="" style="edgeStyle=orthogonalEdgeStyle;rounded=0;orthogonalLoop=1;jettySize=auto;html=1;fontFamily=Comic Sans MS;fontSize=7;" edge="1" parent="1" source="4gpTap-luiY6iofxUlM1-3" target="4gpTap-luiY6iofxUlM1-18">
          <mxGeometry relative="1" as="geometry" />
        </mxCell>
        <mxCell id="4gpTap-luiY6iofxUlM1-3" value="" style="rounded=0;whiteSpace=wrap;html=1;labelBackgroundColor=none;fontFamily=Comic Sans MS;fillColor=#dae8fc;strokeColor=#6c8ebf;" vertex="1" parent="1">
          <mxGeometry x="40" y="40" width="320" height="120" as="geometry" />
        </mxCell>
        <mxCell id="4gpTap-luiY6iofxUlM1-4" value="Online / Social Platform" style="text;html=1;strokeColor=#6c8ebf;fillColor=#dae8fc;align=center;verticalAlign=middle;whiteSpace=wrap;rounded=0;labelBackgroundColor=none;fontFamily=Comic Sans MS;" vertex="1" parent="1">
          <mxGeometry x="130" y="10" width="140" height="30" as="geometry" />
        </mxCell>
        <mxCell id="4gpTap-luiY6iofxUlM1-8" value="" style="group" vertex="1" connectable="0" parent="1">
          <mxGeometry x="57" y="66" width="40" height="30" as="geometry" />
        </mxCell>
        <mxCell id="4gpTap-luiY6iofxUlM1-5" value="" style="shape=actor;whiteSpace=wrap;html=1;labelBackgroundColor=none;fontFamily=Comic Sans MS;fillColor=#76608a;strokeColor=#432D57;fontColor=#ffffff;" vertex="1" parent="4gpTap-luiY6iofxUlM1-8">
          <mxGeometry width="20" height="30" as="geometry" />
        </mxCell>
        <mxCell id="4gpTap-luiY6iofxUlM1-6" value="" style="shape=actor;whiteSpace=wrap;html=1;labelBackgroundColor=none;fontFamily=Comic Sans MS;fillColor=#76608a;strokeColor=#432D57;fontColor=#ffffff;" vertex="1" parent="4gpTap-luiY6iofxUlM1-8">
          <mxGeometry x="10" width="20" height="30" as="geometry" />
        </mxCell>
        <mxCell id="4gpTap-luiY6iofxUlM1-7" value="" style="shape=actor;whiteSpace=wrap;html=1;labelBackgroundColor=none;fontFamily=Comic Sans MS;fillColor=#76608a;strokeColor=#432D57;fontColor=#ffffff;" vertex="1" parent="4gpTap-luiY6iofxUlM1-8">
          <mxGeometry x="20" width="20" height="30" as="geometry" />
        </mxCell>
        <mxCell id="4gpTap-luiY6iofxUlM1-9" value="Customers" style="text;html=1;strokeColor=none;fillColor=none;align=center;verticalAlign=middle;whiteSpace=wrap;rounded=0;labelBackgroundColor=none;fontFamily=Comic Sans MS;" vertex="1" parent="1">
          <mxGeometry x="50" y="96" width="60" height="30" as="geometry" />
        </mxCell>
        <mxCell id="4gpTap-luiY6iofxUlM1-10" value="" style="shape=datastore;whiteSpace=wrap;html=1;labelBackgroundColor=none;fontFamily=Comic Sans MS;fillColor=#d0cee2;strokeColor=#56517e;" vertex="1" parent="1">
          <mxGeometry x="300" y="46" width="40" height="80" as="geometry" />
        </mxCell>
        <mxCell id="4gpTap-luiY6iofxUlM1-11" value="" style="endArrow=classic;html=1;rounded=0;fontFamily=Comic Sans MS;" edge="1" parent="1" target="4gpTap-luiY6iofxUlM1-10">
          <mxGeometry width="50" height="50" relative="1" as="geometry">
            <mxPoint x="100" y="86" as="sourcePoint" />
            <mxPoint x="140" y="36" as="targetPoint" />
          </mxGeometry>
        </mxCell>
        <mxCell id="4gpTap-luiY6iofxUlM1-13" value="Data Source" style="text;html=1;strokeColor=none;fillColor=none;align=center;verticalAlign=middle;whiteSpace=wrap;rounded=0;labelBackgroundColor=none;fontFamily=Comic Sans MS;" vertex="1" parent="1">
          <mxGeometry x="280" y="126" width="80" height="20" as="geometry" />
        </mxCell>
        <mxCell id="4gpTap-luiY6iofxUlM1-15" value="Customer Activity e.g. Posts / Tweets / Trading activity / User behavior" style="text;html=1;strokeColor=none;fillColor=none;align=center;verticalAlign=middle;whiteSpace=wrap;rounded=0;labelBackgroundColor=none;fontFamily=Comic Sans MS;fontSize=7;" vertex="1" parent="1">
          <mxGeometry x="140" y="86" width="120" height="40" as="geometry" />
        </mxCell>
        <mxCell id="4gpTap-luiY6iofxUlM1-18" value="" style="whiteSpace=wrap;html=1;fontFamily=Comic Sans MS;fillColor=#ffe6cc;strokeColor=#d79b00;rounded=0;labelBackgroundColor=none;" vertex="1" parent="1">
          <mxGeometry x="520" y="40" width="280" height="120" as="geometry" />
        </mxCell>
        <mxCell id="4gpTap-luiY6iofxUlM1-20" value="Data Vendors" style="text;html=1;strokeColor=#d79b00;fillColor=#ffe6cc;align=center;verticalAlign=middle;whiteSpace=wrap;rounded=0;labelBackgroundColor=none;fontFamily=Comic Sans MS;" vertex="1" parent="1">
          <mxGeometry x="590" y="10" width="140" height="30" as="geometry" />
        </mxCell>
        <mxCell id="4gpTap-luiY6iofxUlM1-21" value="Data&amp;nbsp; shared&amp;nbsp; / sold to Vendors" style="text;html=1;strokeColor=none;fillColor=none;align=center;verticalAlign=middle;whiteSpace=wrap;rounded=0;labelBackgroundColor=none;fontFamily=Comic Sans MS;fontSize=7;" vertex="1" parent="1">
          <mxGeometry x="410" y="100" width="60" height="30" as="geometry" />
        </mxCell>
        <mxCell id="4gpTap-luiY6iofxUlM1-24" value="" style="edgeStyle=orthogonalEdgeStyle;rounded=0;orthogonalLoop=1;jettySize=auto;html=1;fontFamily=Comic Sans MS;fontSize=7;entryX=0;entryY=0.521;entryDx=0;entryDy=0;entryPerimeter=0;" edge="1" parent="1" source="4gpTap-luiY6iofxUlM1-22" target="4gpTap-luiY6iofxUlM1-25">
          <mxGeometry relative="1" as="geometry">
            <mxPoint x="670" y="86" as="targetPoint" />
          </mxGeometry>
        </mxCell>
        <mxCell id="4gpTap-luiY6iofxUlM1-22" value="" style="shape=datastore;whiteSpace=wrap;html=1;labelBackgroundColor=none;fontFamily=Comic Sans MS;fillColor=#d0cee2;strokeColor=#56517e;" vertex="1" parent="1">
          <mxGeometry x="530" y="46" width="40" height="80" as="geometry" />
        </mxCell>
        <mxCell id="4gpTap-luiY6iofxUlM1-25" value="" style="shape=internalStorage;whiteSpace=wrap;html=1;backgroundOutline=1;labelBackgroundColor=none;fontFamily=Comic Sans MS;fontSize=7;fillColor=#d5e8d4;strokeColor=#82b366;" vertex="1" parent="1">
          <mxGeometry x="720" y="48.5" width="70" height="72" as="geometry" />
        </mxCell>
        <mxCell id="4gpTap-luiY6iofxUlM1-26" value="Data is&amp;nbsp; cleaned and organized in a structure fashion" style="text;html=1;strokeColor=none;fillColor=none;align=center;verticalAlign=middle;whiteSpace=wrap;rounded=0;labelBackgroundColor=none;fontFamily=Comic Sans MS;fontSize=7;" vertex="1" parent="1">
          <mxGeometry x="580" y="86" width="120" height="34" as="geometry" />
        </mxCell>
      </root>
    </mxGraphModel>
  </diagram>
</mxfile>
